<?xml version="1.0" encoding="UTF-8" standalone="no"?>
<svg xmlns="http://www.w3.org/2000/svg" id="svgCanvas" viewBox="0 0 652.5 793.84375">
  <defs>
    <style>
    #package-text-group {
      stroke:#333;
      dominant-baseline:text-before-edge;
    }
    #rect-group {
      stroke:#880;
      fill:#ff8
    }
    #text-group {
      stroke:#333;
      dominant-baseline:text-before-edge;
    }
    #line-group {
      stroke:#333;
      marker-end:url(#Triangle);
      fill:none;
      stroke-width:1;
    }
    </style>
    <marker id="Triangle" viewBox="0 0 10 10" refX="12" refY="5"
        markerWidth="6" markerHeight="6" orient="auto" fill="#333">
      <path d="M 0 0 L 10 5 L 0 10 z" />
    </marker>
  </defs>
  <g id="package-rect-group"><rect x="80" y="472.59375" width="316" height="76" fill="none" stroke="#aaa" stroke-width="1"  /></g>
  <g id="rect-group"><rect x="104" y="95" rx="3" ry="3" width="160" height="32" />
<rect x="128" y="175" rx="3" ry="3" width="80.109375" height="32" />
<rect x="104" y="255" rx="3" ry="3" width="165.3125" height="89.59375" />
<rect x="285.3125" y="255" rx="3" ry="3" width="319.1875" height="32" />
<rect x="104" y="352.59375" rx="3" ry="3" width="304" height="32" />
<rect x="128" y="432.59375" rx="3" ry="3" width="80.109375" height="32" />
<rect x="264.109375" y="432.59375" rx="3" ry="3" width="96" height="32" />
<rect x="152" y="512.59375" rx="3" ry="3" width="112" height="32" />
<rect x="280" y="512.59375" rx="3" ry="3" width="112" height="32" />
<rect x="104" y="593.84375" rx="3" ry="3" width="208" height="32" />
<rect x="128" y="673.84375" rx="3" ry="3" width="128.109375" height="32" />
<rect x="272.109375" y="713.84375" rx="3" ry="3" width="160" height="32" /></g>
  <g id="text-group"><text id="domain" data-package="domain" data-name="domain" data-type="package" x="24" y="23">domain</text>
<text id="domain.member" data-package="domain.member" data-name="member" data-type="package" x="48" y="63">member</text>
<text id="domain.member.Entity" data-package="domain.member.Entity" data-name="Entity" data-type="element" x="120" y="103">会員エンティティ</text>
<text id="domain.member.vo" data-package="domain.member.vo" data-name="vo" data-type="package" x="72" y="143">vo</text>
<text id="domain.member.vo.Id" data-package="domain.member.vo.Id" data-name="Id" data-type="element" x="144" y="183">会員ID</text>
<text id="domain.contract" data-package="domain.contract" data-name="contract" data-type="package" x="48" y="223">contract</text>
<text id="domain.contract.Entity" data-package="domain.contract.Entity" data-name="Entity" data-type="element" x="120" y="263"><tspan x="120" dx="0" dy="0em">契約エンティティ</tspan>
<tspan x="120" dx="0" dy="1.2em">ほげ</tspan>
<tspan x="120" dx="0" dy="1.2em">ふーーー</tspan>
<tspan x="120" dx="0" dy="1.2em">ばーーー</tspan></text>
<text id="domain.contract.Hoge" data-package="domain.contract.Hoge" data-name="Hoge" data-type="element" x="301.3125" y="263">ほげーーーーーーーーーーーーーーーー</text>
<text id="domain.contract.Foo" data-package="domain.contract.Foo" data-name="Foo" data-type="element" x="120" y="360.59375">ふーーーーーーーーーーーーーーーー</text>
<text id="domain.contract.vo" data-package="domain.contract.vo" data-name="vo" data-type="package" x="72" y="400.59375">vo</text>
<text id="domain.contract.vo.Id" data-package="domain.contract.vo.Id" data-name="Id" data-type="element" x="144" y="440.59375">契約ID</text>
<text id="domain.contract.vo.State" data-package="domain.contract.vo.State" data-name="State" data-type="element" margin-left="40" x="280.109375" y="440.59375">契約状態</text>
<text id="domain.contract.vo.term" data-package="domain.contract.vo.term" data-name="term" data-type="package" frame="true" x="96" y="480.59375">term</text>
<text id="domain.contract.vo.term.StartDate" data-package="domain.contract.vo.term.StartDate" data-name="StartDate" data-type="element" x="168" y="520.59375">契約開始日</text>
<text id="domain.contract.vo.term.EndDate" data-package="domain.contract.vo.term.EndDate" data-name="EndDate" data-type="element" x="296" y="520.59375">契約開始日</text>
<text id="domain.option" data-package="domain.option" data-name="option" data-type="package" x="48" y="560.59375">option</text>
<text id="domain.option.Entity" data-package="domain.option.Entity" data-name="Entity" data-type="element" x="120" y="601.84375">オプションエンティティ</text>
<text id="domain.option.vo" data-package="domain.option.vo" data-name="vo" data-type="package" x="72" y="641.84375">vo</text>
<text id="domain.option.vo.Id" data-package="domain.option.vo.Id" data-name="Id" data-type="element" x="144" y="681.84375">オプションID</text>
<text id="domain.option.vo.Type" data-package="domain.option.vo.Type" data-name="Type" data-type="element" margin-top="40" x="288.109375" y="721.84375">オプションタイプ</text></g>
  <g id="line-group"><polyline points="184,127 136,191"  />
<polyline points="186.65625,344.59375 136,448.59375"  />
<polyline points="186.65625,255 136,191"  />
<polyline points="186.65625,344.59375 272.109375,448.59375"  />
<polyline points="186.65625,344.59375 160,528.59375"  />
<polyline points="186.65625,344.59375 288,528.59375"  />
<polyline points="208,625.84375 136,689.84375"  />
<polyline points="208,593.84375 136,448.59375"  />
<polyline points="208,625.84375 280.109375,729.84375"  />
<polyline points="192.0546875,705.84375 280.109375,729.84375"  /></g>
</svg>