<?xml version="1.0" encoding="UTF-8" standalone="no"?>
<svg xmlns="http://www.w3.org/2000/svg" id="svgCanvas" viewBox="0 0 320 298.875">
  <defs>
    <style>
    #package-text-group {
      stroke:#333;
      dominant-baseline:text-before-edge;
    }
    #rect-group {
      stroke:#880;
      fill:#ff8
    }
    #text-group {
      stroke:#333;
      dominant-baseline:text-before-edge;
    }
    #line-group {
      stroke:#333;
      marker-end:url(#Triangle);
      fill:none;
      stroke-width:1;
    }
    </style>
    <marker id="Triangle" viewBox="0 0 10 10" refX="12" refY="5"
        markerWidth="6" markerHeight="6" orient="auto" fill="#333">
      <path d="M 0 0 L 10 5 L 0 10 z" />
    </marker>
  </defs>
  <g id="package-rect-group"><rect x="8" y="15" width="268" height="77.25" fill="none" stroke="#aaa" stroke-width="1"  />
<rect x="8" y="96.25" width="220" height="77.25" fill="none" stroke="#aaa" stroke-width="1"  />
<rect x="8" y="177.5" width="140" height="77.375" fill="none" stroke="#aaa" stroke-width="1"  /></g>
  <g id="rect-group"><rect x="80" y="56.25" rx="3" ry="3" width="112" height="32" />
<rect x="208" y="56.25" rx="3" ry="3" width="64" height="32" />
<rect x="80" y="137.5" rx="3" ry="3" width="144" height="32" />
<rect x="80" y="218.875" rx="3" ry="3" width="64" height="32" /></g>
  <g id="text-group"><text id="keep" data-package="keep" data-name="keep" data-type="package" frame="true" x="24" y="23">keep</text>
<text id="keep.K001" data-package="keep.K001" data-name="K001" data-type="element" x="96" y="64.25">天気がいい</text>
<text id="keep.K002" data-package="keep.K002" data-name="K002" data-type="element" x="224" y="64.25">平和</text>
<text id="problem" data-package="problem" data-name="problem" data-type="package" frame="true" x="24" y="104.25">problem</text>
<text id="problem.P001" data-package="problem.P001" data-name="P001" data-type="element" x="96" y="145.5">やる気が出ない</text>
<text id="try" data-package="try" data-name="try" data-type="package" frame="true" x="24" y="185.5">try</text>
<text id="try.T001" data-package="try.T001" data-name="T001" data-type="element" x="96" y="226.875">帰る</text></g>
  <g id="line-group"><polyline points="152,169.5 88,234.875"  /></g>
</svg>